<svg width="247" height="38" viewBox="0 0 247 38" fill="none" xmlns="http://www.w3.org/2000/svg">
<path d="M2.13737 10.7965H15.2903C17.6423 10.7965 19.0659 13.2413 17.8125 15.1136L6.26893 32.3664C5.78923 33.0781 6.33082 34.0065 7.22831 34.0065H18.6481C19.5147 34.0065 20.211 34.6719 20.211 35.4765C20.211 36.2966 19.5147 36.9465 18.6481 36.9465H5.21669C2.57064 36.9465 0.945868 34.1922 2.36948 32.0724L13.8357 14.866C14.1761 14.3708 13.7893 13.7209 13.1703 13.7209H2.13737C1.2863 13.7209 0.589966 13.0711 0.589966 12.251C0.589966 11.4464 1.2863 10.781 2.13737 10.781V10.7965Z" fill="white"/>
<path d="M37.6657 9.79062C41.8746 9.79062 45.3717 11.2296 48.157 14.1077C50.6793 16.7536 51.9327 19.8793 51.9327 23.4691C51.9327 27.0589 50.6019 30.2155 47.9404 32.9233C45.2789 35.6157 41.8591 36.9619 37.6811 36.9619C33.5031 36.9619 30.0524 35.6157 27.4064 32.9233C24.7449 30.231 23.4296 27.0744 23.4296 23.4691C23.4296 19.8638 24.683 16.7691 27.2052 14.1232C29.9905 11.2296 33.4877 9.77515 37.6966 9.77515L37.6657 9.79062ZM37.6657 13.04C34.7565 13.04 32.2497 14.0613 30.1453 16.1038C28.0408 18.1462 27.0041 20.622 27.0041 23.5155C27.0041 25.3878 27.4838 27.1363 28.4431 28.761C29.4025 30.3857 30.7023 31.639 32.3271 32.5055C33.9519 33.372 35.7469 33.8208 37.6657 33.8208C39.5844 33.8208 41.4258 33.3875 43.0506 32.5055C44.6754 31.639 45.9597 30.3857 46.9036 28.761C47.8475 27.1363 48.3272 25.3878 48.3272 23.5155C48.3272 20.622 47.275 18.1462 45.186 16.1038C43.0816 14.0613 40.5748 13.04 37.6657 13.04Z" fill="white"/>
<path d="M71.3525 9.79062C75.5615 9.79062 79.0586 11.2296 81.8439 14.1077C84.3662 16.7536 85.6196 19.8793 85.6196 23.4691C85.6196 27.0589 84.2888 30.2155 81.6273 32.9233C78.9658 35.6157 75.546 36.9619 71.368 36.9619C67.19 36.9619 63.7393 35.6157 61.0933 32.9233C58.4317 30.231 57.1165 27.0744 57.1165 23.4691C57.1165 19.8638 58.3699 16.7691 60.8921 14.1232C63.6774 11.2296 67.1746 9.77515 71.3835 9.77515L71.3525 9.79062ZM71.3525 13.04C68.4434 13.04 65.9366 14.0613 63.8322 16.1038C61.7277 18.1462 60.691 20.622 60.691 23.5155C60.691 25.3878 61.1706 27.1363 62.13 28.761C63.0894 30.3857 64.3892 31.639 66.014 32.5055C67.6388 33.372 69.4338 33.8208 71.3525 33.8208C73.2713 33.8208 75.1127 33.3875 76.7375 32.5055C78.3623 31.639 79.6466 30.3857 80.5905 28.761C81.5344 27.1363 82.0141 25.3878 82.0141 23.5155C82.0141 20.622 80.9619 18.1462 78.8729 16.1038C76.7684 14.0613 74.2617 13.04 71.3525 13.04Z" fill="white"/>
<path d="M141.28 31.9331C139.779 29.5811 138.881 27.2601 138.587 24.97V2.10038C138.587 1.18745 139.376 0.460205 140.336 0.460205C141.295 0.460205 142.084 1.20293 142.084 2.11586V14.8969C143.57 13.1793 145.226 11.9105 147.051 11.0595C148.877 10.2239 150.889 9.79065 153.071 9.79065C156.939 9.79065 160.235 11.1214 162.99 13.7828C165.744 16.4442 167.106 19.6627 167.106 23.4536C167.106 27.2446 165.729 30.3703 162.959 33.0007C160.189 35.6467 156.862 36.9619 152.963 36.9619C150.734 36.9619 148.63 36.5596 146.68 35.7395C144.73 34.9349 142.92 33.6506 141.28 31.9021V31.9331ZM152.669 33.7899C154.649 33.7899 156.475 33.3257 158.131 32.4127C159.787 31.4998 161.102 30.2155 162.092 28.5753C163.083 26.9352 163.562 25.1867 163.562 23.3453C163.562 21.504 163.067 19.771 162.077 18.0999C161.086 16.4287 159.756 15.129 158.084 14.2006C156.413 13.2876 154.618 12.8234 152.73 12.8234C150.843 12.8234 148.97 13.2876 147.237 14.2006C145.504 15.1135 144.173 16.3668 143.245 17.9451C142.316 19.5234 141.852 21.2874 141.852 23.237C141.852 26.2389 142.904 28.7455 144.993 30.7571C147.098 32.7686 149.651 33.7744 152.684 33.7744L152.669 33.7899Z" fill="white"/>
<path d="M175.4 0.429199C176.204 0.429199 176.885 0.692246 177.458 1.23381C178.03 1.77538 178.324 2.40979 178.324 3.16799C178.324 3.92618 178.03 4.57606 177.458 5.11763C176.885 5.6592 176.189 5.93772 175.4 5.93772C174.611 5.93772 173.914 5.6592 173.357 5.11763C172.785 4.57606 172.506 3.92618 172.506 3.16799C172.506 2.40979 172.785 1.77538 173.357 1.23381C173.93 0.692246 174.611 0.429199 175.4 0.429199ZM175.4 11.0749C176.375 11.0749 177.164 11.8176 177.164 12.7305V35.2907C177.164 36.2037 176.375 36.9464 175.4 36.9464C174.425 36.9464 173.636 36.2037 173.636 35.2907V12.7305C173.636 11.8176 174.425 11.0749 175.4 11.0749Z" fill="white"/>
<path d="M204.398 35.7548C202.448 36.5594 200.344 36.9772 198.116 36.9772C194.216 36.9772 190.889 35.662 188.119 33.016C185.35 30.3701 183.972 27.1826 183.972 23.469C183.972 19.7554 185.35 16.4595 188.088 13.7981C190.843 11.1367 194.139 9.80597 198.007 9.80597C200.189 9.80597 202.201 10.2238 204.027 11.0748C205.853 11.9104 207.508 13.1946 208.994 14.9122V2.10023C208.994 1.1873 209.783 0.44458 210.742 0.44458C211.702 0.44458 212.491 1.1873 212.491 2.08476V24.9544C212.197 27.229 211.3 29.55 209.799 31.9174C208.143 33.6659 206.348 34.9347 204.383 35.7548H204.398ZM206.116 30.7724C208.22 28.7609 209.257 26.2542 209.257 23.2523C209.257 21.3027 208.793 19.5387 207.864 17.9604C206.936 16.3822 205.605 15.1288 203.872 14.2159C202.139 13.303 200.313 12.8388 198.379 12.8388C196.444 12.8388 194.696 13.303 193.025 14.2159C191.354 15.1288 190.023 16.4286 189.032 18.1152C188.042 19.7863 187.547 21.5348 187.547 23.3607C187.547 25.1865 188.042 26.966 189.017 28.5907C189.992 30.2308 191.323 31.4997 192.978 32.4281C194.634 33.341 196.46 33.8052 198.441 33.8052C201.473 33.8052 204.042 32.7994 206.131 30.7879L206.116 30.7724Z" fill="white"/>
<path d="M232.654 9.79062C236.862 9.79062 240.36 11.2296 243.145 14.1077C245.667 16.7536 246.921 19.8793 246.921 23.4691C246.921 27.0589 245.59 30.2155 242.928 32.9233C240.267 35.6157 236.847 36.9619 232.669 36.9619C228.491 36.9619 225.04 35.6157 222.394 32.9233C219.733 30.231 218.417 27.0744 218.417 23.4691C218.417 19.8638 219.671 16.7691 222.193 14.1232C224.978 11.2296 228.476 9.77515 232.685 9.77515L232.654 9.79062ZM232.654 13.04C229.744 13.04 227.238 14.0613 225.133 16.1038C223.029 18.1462 221.992 20.622 221.992 23.5155C221.992 25.3878 222.472 27.1363 223.431 28.761C224.39 30.3857 225.69 31.639 227.315 32.5055C228.94 33.372 230.735 33.8208 232.654 33.8208C234.572 33.8208 236.414 33.3875 238.039 32.5055C239.663 31.639 240.948 30.3857 241.892 28.761C242.835 27.1363 243.315 25.3878 243.315 23.5155C243.315 20.622 242.263 18.1462 240.174 16.1038C238.069 14.0613 235.563 13.04 232.654 13.04Z" fill="white"/>
<path d="M136.978 34.9504L128.575 14.1851C127.338 11.1059 124.274 9.10986 120.777 9.10986C117.279 9.10986 114.216 11.1059 112.978 14.2006L112.343 15.7789L111.678 14.1851C110.44 11.1059 107.376 9.10986 103.879 9.10986C100.382 9.10986 97.318 11.1059 96.0801 14.2006L87.7705 34.9659C87.3991 35.8943 87.8943 36.9465 88.8846 37.3024C89.1013 37.3797 89.3334 37.4261 89.5655 37.4261C90.3392 37.4261 91.0665 36.9774 91.3605 36.2502L99.67 15.4849C100.49 13.4579 102.393 12.7306 103.894 12.7306C105.395 12.7306 107.299 13.4579 108.119 15.5004L110.332 20.8232L106.958 29.2562C106.958 29.2562 106.958 29.2562 106.958 29.2717C106.695 29.9061 106.571 30.556 106.571 31.2368C106.571 34.2696 109.187 36.7298 112.39 36.7298C115.593 36.7298 118.208 34.2696 118.208 31.2368C118.208 30.4941 118.053 29.7668 117.759 29.1169L115.067 22.3241L113.009 27.4613L114.216 30.5095C114.324 30.7416 114.37 30.9892 114.37 31.2368C114.37 32.2735 113.473 33.1091 112.39 33.1091C111.306 33.1091 110.409 32.2735 110.409 31.2368C110.409 31.0047 110.455 30.7726 110.548 30.556C110.548 30.556 110.548 30.556 110.548 30.5405L116.568 15.4849C117.388 13.4579 119.291 12.7306 120.792 12.7306C122.293 12.7306 124.196 13.4579 125.016 15.4849L133.419 36.2502C133.713 36.9774 134.44 37.4107 135.214 37.4107C135.446 37.4107 135.678 37.3797 135.895 37.2869C136.885 36.931 137.38 35.8788 136.993 34.9504H136.978Z" fill="white"/>
</svg>
